
<svg xmlns="http://www.w3.org/2000/svg" version="1.1" xmlns:xlink="http://www.w3.org/1999/xlink" preserveAspectRatio="none" x="0px" y="0px" width="325px" height="597px" viewBox="0 0 325 597">
<defs>
<g id="Layer0_0_FILL">
<path fill="#000000" stroke="none" d="
M 299.7 57.6
Q 279.05 34.25 248.95 22 222.2 11.1 193.3 10.1 184.95 9.95 180.75 9.8 173.45 9.55 168.3 8.6 165.2 8 160.8 6.8 155.9 5.35 153.4 4.65 137.15 0.15 121 0 104.05 -0.2 88.75 4.4 69.75 10.15 47.2 26.1 36.7 33.45 29.3 40.35 20.3 48.7 14.4 57.5 0.25 78.75 0 107.8 -0.3 133.9 10.45 160.6 19.2 182.3 33.4 201.6 47.4 220.6 65.65 235.85 92.35 258.2 123.65 268.05 127.95 269.4 132.2 270.45 127.95 275.25 124.25 282.2 122.7 285.1 116.75 298.25 111.75 309.05 106.35 318.75 101.7 326.9 97.75 332.3 97.05 333.3 92.85 338.65 89.8 342.5 88.15 345.15 85.2 349.85 84.8 353.65 84.55 356.05 85.3 358.25 86.15 360.55 87.9 361.9 89.9 363.4 92.65 363.4 95.25 363.4 97.65 362.2 99.75 361.2 101.8 359.25 103.2 358 105.35 355.5 112.75 346.8 117.25 339.4 118.65 337.1 121.2 332.3 123.75 327.55 125.1 325.2 125.25 324.9 128.5 319.65 130.55 316.35 131.7 314 133.05 311.25 134.65 306.85 137.1 300.1 137.3 299.55 142.7 286 152.2 275.15 152.7 274.55 153.2 274.05 154.05 274.1 154.9 274.2 154.9 274.35 154.9 274.5 155.3 303.1 155.85 326.2 156.25 342.95 157.05 376.4 157.65 405.1 157.4 426.55 157.35 429.95 157.5 431.7 157.7 434.5 158.45 436.65 158.65 437.25 158.95 437.85 158 438.85 156.95 440.2 155.55 442 153 444.95 150.1 448.35 149 449.7 143.55 456.45 136.65 467.8 133.3 473.35 131.65 476.65 128.65 482.6 125.75 491.15 124.05 496.1 120.85 506.05 117.9 514.85 113.7 525.45 110.95 532.4 105.8 544.55
L 102.9 551.45
Q 101.4 555.1 100.85 556.95 99.9 560.05 100.05 562.65 100.2 565.7 101.95 568.15 103.8 570.75 106.55 571.2 108.6 571.5 110.7 570.6 112.65 569.75 114.2 568.1 116.3 565.75 118.4 560.65 131.75 529.6 138.1 510.05 140.75 501.65 142.1 497.45 144.5 490.2 146.65 485.05 150.2 476.7 155.8 467.5 159.5 461.4 165.1 453.45 165.15 453.7 165.25 453.95
L 176.45 490.15
Q 179.15 498.95 180.15 503.45 181.05 507.7 182.55 516.3 184.05 523.4 188.7 536.8 193.45 550.45 194.95 557.25 195.1 557.9 196.85 567 197.95 572.85 199.2 576.55 199.75 578.15 200.9 581.35 201.85 584.15 202 586.25 202.1 587.5 202.1 590.05 202.15 592.25 202.75 593.65 204.05 596.7 207.75 597.5 211.3 598.25 214.2 596.4 216.9 594.65 218.3 591.3 219.6 588.25 219.55 584.7 219.5 581.75 218.6 578.1 218.3 576.85 216.7 571.6 215.55 567.85 214.05 561.9 212 553.85 211.55 552.2 209.5 544.3 205.85 532.3
L 199.3 510.35
Q 196.5 500.85 193.75 492.25 189.45 478.7 185.25 468.35 180.15 455.75 174.3 445.55 172.65 442.6 172 441.45 174 439.85 175.15 437.45 176.35 435.05 176.8 431.75 177.1 429.55 177.2 425.7 178.1 393.3 176.55 366.8
L 175.75 354.6
Q 175.25 347.25 175.05 342.35 174.85 337.8 174.7 327 174.5 317.1 174.25 311.6 173.85 304.55 172.45 290.45
L 171.3 278.7
Q 174.25 283.8 176.25 288.6 176.75 289.8 178.6 294.5 180 298.1 181.05 300.3 182.8 304.05 187.7 311.85
L 210.05 347.2
Q 213.45 352.55 214.9 355.3 217.4 359.95 218.55 364 218.95 365.4 219.7 368.15 220.4 370.55 221.4 372.05 223.6 375.2 227.75 375.9 231.9 376.55 234.95 374.25 237.8 372 238.75 367.9 239.6 364.25 238.75 360.15 238 356.65 236.15 352.65 234.9 350.05 232.35 345.6 220.3 324.9 206.4 305.4
L 200.85 297.45
Q 198.6 294 194.45 286.75 190.35 279.55 188.05 276.05 186.85 274.2 185.6 272.5 187.1 272.2 188.65 271.85 206.45 268 224.95 257.9 240.25 249.5 257.5 236 273.35 223.55 285 211.4 298.6 197.25 307.65 182.5 317.7 166.15 322.3 148.7 327.2 130 325.2 112.25 321.8 82.6 299.7 57.6
M 265.8 55.3
Q 288.4 70.55 297.8 89.85 305.75 106.2 304.6 126.2 303.55 144.9 294.9 162.55 287.2 178.35 273.65 193.3 262.25 205.85 245.8 218.75 228.35 232.45 212.7 240.5 193.75 250.2 175.6 252.65 165.85 253.95 155.85 253.3 155.2 253 154.4 252.85 153.15 252.65 151.9 252.95 140.05 251.65 127.85 247.65 105.35 240.25 84.8 224.65 60.05 205.85 42.85 179.6 24.1 150.8 21.1 122.4 19.45 106.55 23 91.6 26.75 75.9 35.7 63.8 43.2 53.6 56 44.25 64 38.4 80.2 28.9 84.75 26.2 87.25 25.05 91.3 23.2 94.8 22.7 98.6 22.2 103.65 23.05 104.7 23.25 112.4 25.05 129.65 29.15 162.25 29.85 197.15 30.55 212.4 33.4 241.4 38.9 265.8 55.3
M 215.35 139.05
Q 204.95 140.4 203.5 140.5 197.8 140.95 187.65 140.45 159.65 139.3 144.95 138.35 121.3 136.8 102.45 134.1 96.7 133.2 95.45 136.15 95 137.35 95.6 139.85
L 102.2 166.4
Q 104.55 175.85 106.1 180.5 108.6 188.25 111.9 193.8 117.95 203.95 128.85 211.5 138.6 218.25 151.3 222.2 160.75 225.1 170.25 226.2 179.95 227.3 186.15 225.55 192.2 223.8 198.2 218.65 202.05 215.4 208.15 208.45 217.65 197.7 222.1 191.4 229.15 181.4 231.95 172 233.5 166.85 234.25 160.2 234.7 156.25 235.15 148.2 235.25 145.55 235.05 144.15 234.7 141.95 233.55 140.65 231.7 138.6 227.2 138.4 222.5 138.15 215.35 139.05
M 216.25 184.3
Q 214.75 186.6 211.15 190.8
L 201.5 202.3
Q 196.7 208 193.65 210.7 188.85 214.9 183.95 216.3 180.4 217.3 175.6 217.2 164.2 217.15 151.75 212.85 141.5 209.35 133.7 203.9 124.85 197.75 119.85 189.6 117.35 185.6 115.35 180.25 113.9 176.35 112.15 170.25 108.45 157.45 105.3 143.2 130.95 145.75 156.75 147.1 169.25 147.75 201.85 148.7
L 225.45 149.35
Q 226.65 162.55 220.2 177 218.25 181.35 216.25 184.3
M 118.7 77.35
Q 118.8 82.3 120.55 84.45 122 86.25 124.5 86.5 127 86.8 128.8 85.35 131.85 82.95 131.85 76.4 131.95 72.35 131.55 68.35 131.15 64.4 130.1 62.4 129.35 60.95 128.1 60 126.8 59 125.3 58.95 122.4 58.95 120.7 61.3 119.35 63.1 119.05 67 118.6 71.95 118.7 77.35
M 221.35 66.8
Q 221.05 67.25 220.3 67.4 219.4 67.5 218.95 67.6 217.8 67.9 217 69 216.3 70 216.05 71.3 215.95 72 215.85 73.8 215.8 75.35 215.6 76.25 215.35 77.2 214.25 79.9 212.7 83.5 212.85 86.45 213 90.35 215.55 92.5 216.85 93.6 218.6 93.9 220.4 94.15 221.85 93.35 223.45 92.45 224.45 90.35 225.05 88.95 225.65 86.3
L 226.75 80.8
Q 227.25 77.95 226.9 74.55 226.65 71.5 225.5 69.6 223.9 67.05 221.35 66.8 Z"/>

<path fill="#FFFFFF" stroke="none" d="
M 297.8 89.85
Q 288.4 70.55 265.8 55.3 241.4 38.9 212.4 33.4 197.15 30.55 162.25 29.85 129.65 29.15 112.4 25.05 104.7 23.25 103.65 23.05 98.6 22.2 94.8 22.7 91.3 23.2 87.25 25.05 84.75 26.2 80.2 28.9 64 38.4 56 44.25 43.2 53.6 35.7 63.8 26.75 75.9 23 91.6 19.45 106.55 21.1 122.4 24.1 150.8 42.85 179.6 60.05 205.85 84.8 224.65 105.35 240.25 127.85 247.65 140.05 251.65 151.9 252.95 153.15 252.65 154.4 252.85 155.2 253 155.85 253.3 165.85 253.95 175.6 252.65 193.75 250.2 212.7 240.5 228.35 232.45 245.8 218.75 262.25 205.85 273.65 193.3 287.2 178.35 294.9 162.55 303.55 144.9 304.6 126.2 305.75 106.2 297.8 89.85
M 220.3 67.4
Q 221.05 67.25 221.35 66.8 223.9 67.05 225.5 69.6 226.65 71.5 226.9 74.55 227.25 77.95 226.75 80.8
L 225.65 86.3
Q 225.05 88.95 224.45 90.35 223.45 92.45 221.85 93.35 220.4 94.15 218.6 93.9 216.85 93.6 215.55 92.5 213 90.35 212.85 86.45 212.7 83.5 214.25 79.9 215.35 77.2 215.6 76.25 215.8 75.35 215.85 73.8 215.95 72 216.05 71.3 216.3 70 217 69 217.8 67.9 218.95 67.6 219.4 67.5 220.3 67.4
M 120.55 84.45
Q 118.8 82.3 118.7 77.35 118.6 71.95 119.05 67 119.35 63.1 120.7 61.3 122.4 58.95 125.3 58.95 126.8 59 128.1 60 129.35 60.95 130.1 62.4 131.15 64.4 131.55 68.35 131.95 72.35 131.85 76.4 131.85 82.95 128.8 85.35 127 86.8 124.5 86.5 122 86.25 120.55 84.45
M 203.5 140.5
Q 204.95 140.4 215.35 139.05 222.5 138.15 227.2 138.4 231.7 138.6 233.55 140.65 234.7 141.95 235.05 144.15 235.25 145.55 235.15 148.2 234.7 156.25 234.25 160.2 233.5 166.85 231.95 172 229.15 181.4 222.1 191.4 217.65 197.7 208.15 208.45 202.05 215.4 198.2 218.65 192.2 223.8 186.15 225.55 179.95 227.3 170.25 226.2 160.75 225.1 151.3 222.2 138.6 218.25 128.85 211.5 117.95 203.95 111.9 193.8 108.6 188.25 106.1 180.5 104.55 175.85 102.2 166.4
L 95.6 139.85
Q 95 137.35 95.45 136.15 96.7 133.2 102.45 134.1 121.3 136.8 144.95 138.35 159.65 139.3 187.65 140.45 197.8 140.95 203.5 140.5
M 211.15 190.8
Q 214.75 186.6 216.25 184.3 218.25 181.35 220.2 177 226.65 162.55 225.45 149.35
L 201.85 148.7
Q 169.25 147.75 156.75 147.1 130.95 145.75 105.3 143.2 108.45 157.45 112.15 170.25 113.9 176.35 115.35 180.25 117.35 185.6 119.85 189.6 124.85 197.75 133.7 203.9 141.5 209.35 151.75 212.85 164.2 217.15 175.6 217.2 180.4 217.3 183.95 216.3 188.85 214.9 193.65 210.7 196.7 208 201.5 202.3
L 211.15 190.8 Z"/>
</g>
</defs>

<g transform="matrix( 1, 0, 0, 1, 0,0) ">
<use xlink:href="#Layer0_0_FILL"/>
</g>
</svg>
